Coordinates
version=1
nRows=17
nColumns=36
inDegrees=yes

Units are S.I. units (second, meters, Newtons, ...)
If the header above contains a line with 'inDegrees', this indicates whether rotational values are in degrees (yes) or radians (no).

endheader
time	pelvis_tilt	pelvis_list	pelvis_rotation	pelvis_tx	pelvis_ty	pelvis_tz	hip_flexion_r	hip_adduction_r	hip_rotation_r	knee_angle_r	knee_angle_r_beta	ankle_angle_r	subtalar_angle_r	mtp_angle_r	hip_flexion_l	hip_adduction_l	hip_rotation_l	knee_angle_l	knee_angle_l_beta	ankle_angle_l	subtalar_angle_l	mtp_angle_l	lumbar_extension	lumbar_bending	lumbar_rotation	arm_flex_r	arm_add_r	arm_rot_r	elbow_flex_r	pro_sup_r	arm_flex_l	arm_add_l	arm_rot_l	elbow_flex_l	pro_sup_l
      3.58333330	    -14.30087274	      1.51195734	     -5.08647954	      1.89103769	      0.94267056	      0.14625119	     31.32599153	     -6.12448593	      0.81594194	     27.53924583	      0.48065051	     16.29866668	     -0.69101199	     -7.49999987	     28.59944209	     -4.97905544	     -5.62971596	     31.29211544	      0.54615044	     18.81571667	      1.05305609	     -7.49999987	     -5.96035086	     -1.93315686	     -1.30610794	      8.45188432	    -11.50939202	      6.93862717	     24.01047009	     73.72466064	    191.93634412	   -164.22676824	    195.40680333	     32.07077048	     87.73630904
      3.60000000	    -12.57845640	      1.03001883	     -5.24628743	      1.90305660	      0.95419357	      0.15444818	     26.63226503	     -5.61280487	      0.51985431	     23.14231856	      0.40390966	     14.66626545	     -0.54411845	     -7.49999987	     24.18259473	     -5.22220480	     -6.05872098	     27.41057472	      0.47840478	     17.70203295	      1.93592878	     -7.49999987	     -6.06827958	     -1.98998840	     -0.78440709	      7.67430594	    -11.54614103	      7.52112788	     23.90804554	     75.05994935	    190.94308870	   -164.42465098	    195.36903190	     30.44191812	     87.94618880
      3.61666670	    -10.98564867	      0.62032339	     -5.55712393	      1.90932464	      0.96016553	      0.15525450	     22.67187163	     -5.08911185	      0.60172292	     19.80684747	      0.34569470	     12.99592194	     -0.66751523	     -7.49999987	     20.19607227	     -5.43583718	     -6.48917220	     24.16823947	      0.42181535	     16.93612740	      2.91096580	     -7.49999987	     -6.02327244	     -2.08471695	     -0.00620875	      6.62301468	    -11.60951319	      7.79386813	     23.88605792	     77.27814950	    190.00577094	   -164.58772277	    195.73853119	     28.72880948	     88.72097221
      3.63333330	     -9.72232266	      0.32156210	     -5.82898490	      1.91174811	      0.96719902	      0.15327248	     19.53182668	     -4.68815712	      1.04581264	     17.10974323	      0.29862135	     11.48999355	     -1.11220467	     -7.49999987	     17.01593814	     -5.49644481	     -6.71589190	     21.55091602	      0.37613444	     16.59404741	      3.75747332	     -7.49999987	     -5.79293590	     -2.22712151	      0.08326310	      6.06112791	    -11.57363973	      8.20262544	     23.71833817	     82.18766521	    188.37355685	   -164.72782607	    194.12475675	     28.01889056	     88.33314993
      3.65000000	     -9.56246226	      0.23798725	     -6.03746582	      1.91480905	      0.97190452	      0.15505398	     18.07753918	     -4.49225601	      1.28659131	     15.28696117	      0.26680781	     10.83146573	     -1.00438282	     -7.49999987	     15.27550068	     -5.38255539	     -6.53401266	     19.27149205	      0.33635099	     16.59667935	      4.10225396	     -7.49999987	     -4.13794507	     -2.38051205	      0.49979258	      4.96847252	    -11.51291583	      8.24431022	     23.66385126	     82.25611882	    186.63457191	   -164.58729561	    194.16288456	     27.28990121	     88.34025086
      3.66666670	     -7.55447660	     -0.07645892	     -6.20867770	      1.92000990	      0.97552537	      0.15628346	     14.43295855	     -4.18098660	      2.09373440	     13.04638234	      0.22770233	      9.39545989	     -2.22898946	     -7.49999987	     11.35756695	     -5.33403053	     -6.61629204	     16.62757497	      0.29020593	     16.19768520	      5.01564570	     -7.49999987	     -5.23539028	     -2.58969060	      0.90825987	      4.49303564	    -11.67662920	      8.75232194	     23.91957046	     83.27322886	    186.06604841	   -164.78589650	    193.20983948	     25.60788272	     89.02023366
      3.68333330	     -6.75145188	     -0.15834601	     -6.33197651	      1.92017982	      0.98061026	      0.15516133	     12.58475684	     -4.09863678	      2.52776389	     11.56770463	      0.20189453	      8.83009019	     -2.63627185	     -7.49999987	      9.20411354	     -5.14183168	     -6.38635679	     14.63343074	      0.25540155	     16.15686179	      5.53674466	     -7.49999987	     -4.91617396	     -2.73781193	      1.24797056	      3.83238876	    -11.78624466	      8.98055936	     23.95112020	     83.67213696	    185.10324266	   -164.77619981	    193.34128902	     24.54987410	     89.03637714
      3.70000000	     -6.03240358	     -0.26543894	     -6.40686364	      1.92544803	      0.98456848	      0.15728445	     10.82861109	     -3.97599899	      2.99883567	     10.18736467	      0.17780306	      8.41750207	     -3.09658853	     -7.49999987	      7.18099657	     -5.00401191	     -6.09126016	     12.76926527	      0.22286572	     15.95233198	      5.90359314	     -7.49999987	     -4.51005445	     -2.82071018	      1.47031393	      3.17969029	    -11.99075457	     10.15274746	     23.97674554	     84.35441162	    184.07738242	   -164.73845964	    193.41451532	     23.38372192	     89.15196991
      3.71666670	     -5.43911993	     -0.31101223	     -6.30490165	      1.92518011	      0.98500602	      0.15662903	      9.33328386	     -3.95571276	      3.31614403	      8.94291293	      0.15608328	      8.19342409	     -3.42512782	     -7.49999987	      5.51106419	     -4.79771689	     -5.60798050	     11.08548064	      0.19347814	     15.78751890	      6.07991893	     -7.49999987	     -4.12972927	     -2.92277830	      1.60522641	      2.60013485	    -11.98798496	     10.26759148	     23.83840304	     84.68328293	    183.12599677	   -164.60265524	    193.48657428	     22.45772845	     89.16952002
      3.73333330	     -4.95607066	     -0.32555496	     -6.15342773	      1.92743613	      0.98123414	      0.15461763	      8.06347764	     -4.00668364	      3.67127074	      7.91153465	      0.13808233	      8.10787449	     -3.81987989	     -7.49999987	      4.00263251	     -4.55976023	     -5.14871437	      9.48655315	      0.16557159	     15.62241598	      6.27233642	     -7.49999987	     -3.64902878	     -2.94944764	      1.55692143	      2.18122940	    -12.11304148	     11.02147059	     23.59756056	     86.30198929	    182.03396410	   -164.67018499	    192.09609304	     21.62549481	     90.50868480
      3.75000000	     -4.60683001	     -0.28994701	     -5.88497895	      1.92745632	      0.98384576	      0.15435680	      7.10164198	     -4.10972595	      3.83813841	      7.08493034	      0.12365536	      8.17240802	     -4.04540745	     -7.49999987	      2.85501374	     -4.29878417	     -4.52667061	      8.10554091	      0.14146838	     15.47541856	      6.22114000	     -7.49999987	     -3.21889710	     -3.05145413	      1.69098157	      1.66176503	    -12.18400598	     11.26788759	     23.67186721	     86.67437750	    181.39910456	   -164.46788522	    193.00348622	     20.90705565	     90.20297210
      3.76666670	     -4.25301691	     -0.20978864	     -5.68314166	      1.92996164	      0.98416103	      0.15236494	      6.26319473	     -4.27969320	      4.07842415	      6.50047615	      0.11345471	      8.38422259	     -4.27102197	     -7.49999987	      1.77612212	     -4.02361489	     -4.15292494	      6.86885206	      0.11988408	     15.19363398	      6.31879675	     -7.49999987	     -2.82717674	     -3.10762239	      1.74859012	      1.30653308	    -12.20834345	     11.45132418	     23.45505345	     86.69932832	    180.70630378	   -164.50748627	    192.78902077	     20.20603421	     90.12731253
      3.78333330	     -3.79677580	     -0.19228348	     -5.52238568	      1.93259301	      0.98045247	      0.15511741	      5.34363188	     -4.36854612	      4.17926873	      5.92426917	      0.10339800	      8.60977922	     -4.33946616	     -7.49999987	      0.70005314	     -3.83470425	     -3.60099279	      5.82270566	      0.10162539	     14.97699505	      6.11347779	     -7.49999987	     -2.64654942	     -3.17346745	      1.69035442	      1.08792306	    -12.45583360	     12.95881184	     23.67796444	     85.97043007	    180.05147091	   -164.50000331	    192.86059776	     19.45747949	     88.96286934
      3.80000000	     -3.45730588	     -0.14891925	     -5.36863281	      1.93155275	      0.97824709	      0.15518619	      4.69787407	     -4.46731281	      4.39626994	      5.59804204	      0.09770427	      8.82120982	     -4.64851928	     -7.49999987	     -0.08944632	     -3.67948497	     -3.29043731	      5.02862159	      0.08776600	     14.87843033	      6.20744098	     -7.49999987	     -2.43979046	     -3.27088822	      1.76424335	      0.94016774	    -12.56952645	     13.46662647	     23.69673743	     86.35530299	    179.36564238	   -164.37043365	    193.09207691	     19.15506430	     89.17962093
      3.81666670	     -3.18761192	     -0.12750021	     -5.26289392	      1.94124499	      0.97923535	      0.15890295	      4.06559419	     -4.53266998	      4.51440512	      5.31332650	      0.09273504	      9.11522470	     -4.68879818	     -7.49999987	     -0.93733215	     -3.57197018	     -3.00300907	      4.18432470	      0.07303024	     14.66073689	      6.21210536	     -7.49999987	     -1.98410913	     -3.34262045	      1.88131700	      0.52503857	    -12.57340981	     13.45183654	     23.67601149	     86.42240726	    178.41444508	   -164.27881198	    193.11790678	     18.71026326	     89.18638074
      3.83333330	     -2.63470624	     -0.09302239	     -5.15999914	      1.94002234	      0.97742294	      0.15883510	      3.22690401	     -4.64835348	      4.57805817	      5.11143935	      0.08921145	      9.47769414	     -4.65454667	     -7.49999987	     -1.95721213	     -3.43930171	     -2.61946273	      3.52181661	      0.06146730	     14.36087500	      6.01617752	     -7.49999987	     -2.05996966	     -3.44493504	      1.87016615	      0.47231402	    -12.59740346	     13.84974509	     23.48652318	     86.45085876	    177.73546895	   -164.31676183	    192.96653048	     17.79858665	     88.72122777
      3.85000000	     -2.35565017	     -0.08014315	     -5.09383550	      1.94954371	      0.97856541	      0.16272096	      2.69214685	     -4.69655748	      4.66752246	      5.07605218	      0.08859382	      9.87299738	     -4.74030662	     -7.49999987	     -2.60444916	     -3.39888651	     -2.42510867	      3.12400017	      0.05452409	     14.33270244	      6.01156506	     -7.49999987	     -1.65432124	     -3.58296855	      1.99385684	     -0.07047001	    -12.56217524	     13.86477161	     23.35272904	     86.48853260	    176.76552882	   -164.19833541	    192.99865006	     17.33178876	     88.72356925
